<?xml version="1.0" encoding="UTF-8" standalone="no"?>
<!-- Created with Inkscape (http://www.inkscape.org/) -->

<svg
   xmlns:dc="http://purl.org/dc/elements/1.1/"
   xmlns:cc="http://creativecommons.org/ns#"
   xmlns:rdf="http://www.w3.org/1999/02/22-rdf-syntax-ns#"
   xmlns:svg="http://www.w3.org/2000/svg"
   xmlns="http://www.w3.org/2000/svg"
   xmlns:xlink="http://www.w3.org/1999/xlink"
   xmlns:sodipodi="http://sodipodi.sourceforge.net/DTD/sodipodi-0.dtd"
   xmlns:inkscape="http://www.inkscape.org/namespaces/inkscape"
   width="48"
   height="48"
   id="svg2"
   version="1.1"
   inkscape:version="0.48+devel r11821"
   sodipodi:docname="xbmc.svg">
  <defs
     id="defs4">
    <linearGradient
       id="linearGradient895">
      <stop
         id="stop897"
         offset="0"
         style="stop-color:#6e96d1;stop-opacity:1" />
      <stop
         id="stop899"
         offset="1"
         style="stop-color:#435a7c;stop-opacity:1" />
    </linearGradient>
    <linearGradient
       id="linearGradient3795">
      <stop
         style="stop-color:#b4c5c5;stop-opacity:1;"
         offset="0"
         id="stop3797" />
      <stop
         style="stop-color:#537381;stop-opacity:1;"
         offset="1"
         id="stop3799" />
    </linearGradient>
    <linearGradient
       id="linearGradient3698">
      <stop
         id="stop3700"
         offset="0"
         style="stop-color:#96d0e1;stop-opacity:1" />
      <stop
         style="stop-color:#89b7e1;stop-opacity:1"
         offset="0.67819428"
         id="stop3706" />
      <stop
         id="stop3702"
         offset="1"
         style="stop-color:#699dd3;stop-opacity:1" />
    </linearGradient>
    <linearGradient
       id="linearGradient3708">
      <stop
         id="stop3710"
         offset="0"
         style="stop-color:#658db6;stop-opacity:1" />
      <stop
         style="stop-color:#527fab;stop-opacity:1;"
         offset="0.76777935"
         id="stop3716" />
      <stop
         id="stop3712"
         offset="1"
         style="stop-color:#4071a0;stop-opacity:1" />
    </linearGradient>
    <linearGradient
       id="linearGradient3750">
      <stop
         style="stop-color:#d0e2f1;stop-opacity:1"
         offset="0"
         id="stop3752" />
      <stop
         id="stop3756"
         offset="0.85580856"
         style="stop-color:#cadef0;stop-opacity:1" />
      <stop
         style="stop-color:#95bee3;stop-opacity:1"
         offset="1"
         id="stop3754" />
    </linearGradient>
    <linearGradient
       id="linearGradient3803">
      <stop
         id="stop3805"
         offset="0"
         style="stop-color:#d7def0;stop-opacity:1;" />
      <stop
         style="stop-color:#ffffff;stop-opacity:1"
         offset="0.5"
         id="stop3811" />
      <stop
         id="stop3807"
         offset="1"
         style="stop-color:#d5def0;stop-opacity:1" />
    </linearGradient>
    <linearGradient
       inkscape:collect="always"
       xlink:href="#linearGradient3795"
       id="linearGradient3801"
       x1="23.204165"
       y1="1053.158"
       x2="23.204165"
       y2="1004.8474"
       gradientUnits="userSpaceOnUse"
       gradientTransform="translate(0,-2056.7244)" />
    <linearGradient
       inkscape:collect="always"
       xlink:href="#linearGradient3795"
       id="linearGradient3859"
       x1="26.192217"
       y1="1024.0002"
       x2="28.641211"
       y2="1024.0002"
       gradientUnits="userSpaceOnUse" />
    <linearGradient
       inkscape:collect="always"
       xlink:href="#linearGradient3795"
       id="linearGradient3867"
       gradientUnits="userSpaceOnUse"
       x1="26.192217"
       y1="1024.0002"
       x2="28.641211"
       y2="1024.0002" />
    <linearGradient
       inkscape:collect="always"
       xlink:href="#linearGradient3795"
       id="linearGradient3869"
       gradientUnits="userSpaceOnUse"
       x1="26.192217"
       y1="1024.0002"
       x2="28.641211"
       y2="1024.0002" />
    <linearGradient
       inkscape:collect="always"
       xlink:href="#linearGradient3795"
       id="linearGradient3871"
       gradientUnits="userSpaceOnUse"
       x1="26.192217"
       y1="1024.0002"
       x2="28.641211"
       y2="1024.0002" />
    <linearGradient
       inkscape:collect="always"
       xlink:href="#linearGradient3795"
       id="linearGradient3877"
       gradientUnits="userSpaceOnUse"
       x1="29.718235"
       y1="1027.8575"
       x2="22.811094"
       y2="1015.5485" />
    <linearGradient
       inkscape:collect="always"
       xlink:href="#linearGradient3795"
       id="linearGradient3879"
       gradientUnits="userSpaceOnUse"
       x1="17.196316"
       y1="1006.2238"
       x2="31.448042"
       y2="1030.9086" />
    <linearGradient
       inkscape:collect="always"
       xlink:href="#linearGradient3795"
       id="linearGradient3895"
       x1="21.973417"
       y1="34.43922"
       x2="42.475323"
       y2="24.798252"
       gradientUnits="userSpaceOnUse" />
    <linearGradient
       id="linearGradient3013">
      <stop
         style="stop-color:#60b5cc;stop-opacity:1;"
         offset="0"
         id="stop3015" />
      <stop
         style="stop-color:#ffffff;stop-opacity:1;"
         offset="1"
         id="stop3017" />
    </linearGradient>
    <linearGradient
       id="linearGradient3013-3">
      <stop
         style="stop-color:#414141;stop-opacity:0;"
         offset="0"
         id="stop3015-0" />
      <stop
         style="stop-color:#ffffff;stop-opacity:1;"
         offset="1"
         id="stop3017-7" />
    </linearGradient>
    <linearGradient
       inkscape:collect="always"
       xlink:href="#linearGradient3013-3"
       id="linearGradient6002"
       gradientUnits="userSpaceOnUse"
       gradientTransform="matrix(-1.001916,0,0,1,-560.92501,142.24199)"
       x1="136.74812"
       y1="89.953423"
       x2="175.71454"
       y2="165.946" />
    <linearGradient
       id="linearGradient3021">
      <stop
         style="stop-color:#60b5cc;stop-opacity:1;"
         offset="0"
         id="stop3023" />
      <stop
         style="stop-color:#ffffff;stop-opacity:1;"
         offset="1"
         id="stop3025" />
    </linearGradient>
    <linearGradient
       inkscape:collect="always"
       xlink:href="#linearGradient3013-3"
       id="linearGradient6004"
       gradientUnits="userSpaceOnUse"
       gradientTransform="matrix(1.001916,0,0,1,-927.00055,142.24199)"
       x1="136.74812"
       y1="89.953423"
       x2="175.71454"
       y2="165.946" />
    <linearGradient
       id="linearGradient3028">
      <stop
         style="stop-color:#60b5cc;stop-opacity:1;"
         offset="0"
         id="stop3030" />
      <stop
         style="stop-color:#ffffff;stop-opacity:1;"
         offset="1"
         id="stop3032" />
    </linearGradient>
    <linearGradient
       inkscape:collect="always"
       xlink:href="#linearGradient3795-4"
       id="linearGradient3150"
       gradientUnits="userSpaceOnUse"
       gradientTransform="matrix(0.96799712,0,0,1.0252613,0.76814895,-25.978139)"
       x1="24.113745"
       y1="1049.2139"
       x2="24.113745"
       y2="1007.5135" />
    <linearGradient
       id="linearGradient3795-4">
      <stop
         style="stop-color:#000000;stop-opacity:1;"
         offset="0"
         id="stop3797-4" />
      <stop
         style="stop-color:#6d6d6d;stop-opacity:1;"
         offset="1"
         id="stop3799-9" />
    </linearGradient>
    <linearGradient
       inkscape:collect="always"
       xlink:href="#linearGradient861"
       id="linearGradient3801-7"
       x1="23.204165"
       y1="1053.158"
       x2="23.204165"
       y2="1004.8474"
       gradientUnits="userSpaceOnUse"
       gradientTransform="translate(0,-2056.7244)" />
    <linearGradient
       id="linearGradient861">
      <stop
         style="stop-color:#37c837;stop-opacity:1"
         offset="0"
         id="stop863" />
      <stop
         style="stop-color:#217821;stop-opacity:1"
         offset="1"
         id="stop865" />
    </linearGradient>
    <linearGradient
       y2="1004.8474"
       x2="23.204165"
       y1="1053.158"
       x1="23.204165"
       gradientTransform="matrix(1,0,0,-1,-1.2414551e-7,1052.3622)"
       gradientUnits="userSpaceOnUse"
       id="linearGradient944"
       xlink:href="#linearGradient895"
       inkscape:collect="always" />
    <linearGradient
       gradientTransform="translate(-31.206215,999.40815)"
       x1="56"
       y1="64"
       x2="16"
       y2="64"
       id="linearGradient3716"
       xlink:href="#linearGradient3710"
       gradientUnits="userSpaceOnUse" />
    <linearGradient
       id="linearGradient3710">
      <stop
         id="stop3712-8"
         style="stop-color:#d9822e;stop-opacity:1"
         offset="0" />
      <stop
         id="stop3714"
         style="stop-color:#d9822e;stop-opacity:0"
         offset="1" />
    </linearGradient>
  </defs>
  <sodipodi:namedview
     id="base"
     pagecolor="#ffffff"
     bordercolor="#666666"
     borderopacity="1.0"
     inkscape:pageopacity="0.0"
     inkscape:pageshadow="2"
     inkscape:zoom="5.6568545"
     inkscape:cx="-28.559852"
     inkscape:cy="20.165297"
     inkscape:document-units="px"
     inkscape:current-layer="layer1"
     showgrid="false"
     inkscape:window-width="1366"
     inkscape:window-height="718"
     inkscape:window-x="0"
     inkscape:window-y="0"
     inkscape:window-maximized="1"
     showguides="false"
     inkscape:guide-bbox="true">
    <inkscape:grid
       type="xygrid"
       id="grid3850" />
  </sodipodi:namedview>
  <metadata
     id="metadata7">
    <rdf:RDF>
      <cc:Work
         rdf:about="">
        <dc:format>image/svg+xml</dc:format>
        <dc:type
           rdf:resource="http://purl.org/dc/dcmitype/StillImage" />
        <dc:title />
      </cc:Work>
    </rdf:RDF>
  </metadata>
  <g
     inkscape:label="Capa 1"
     inkscape:groupmode="layer"
     id="layer1"
     transform="translate(0,-1004.3622)">
    <path
       style="fill:url(#linearGradient944);fill-opacity:1;stroke:#7d7d7d;stroke-opacity:1;stroke-width:0.4;stroke-miterlimit:4;stroke-dasharray:none"
       d="M 7.375 1.6875 C 4.2307532 1.6875 1.6875 4.2307532 1.6875 7.375 L 1.6875 40.625 C 1.6875 43.769247 4.2307532 46.3125 7.375 46.3125 L 40.625 46.3125 C 43.769247 46.3125 46.3125 43.769247 46.3125 40.625 L 46.3125 7.375 C 46.3125 4.2307532 43.769247 1.6875 40.625 1.6875 L 7.375 1.6875 z "
       transform="translate(0,1004.3622)"
       id="rect2991" />
    <g
       id="g879"
       transform="matrix(0.43729193,0,0,0.43729193,16.656213,568.86841)">
      <path
         d="m 36.499271,1040.4633 c -0.650076,0 -1.316248,0.077 -1.956319,0.2371 -1.53161,0.3842 -2.954529,1.1681 -4.137911,2.2883 -0.214733,0.2033 -0.400825,0.3676 -0.414977,0.3676 -0.01416,0 -0.133699,-0.1485 -0.272699,-0.332 -0.337084,-0.4451 -0.934856,-1.0295 -1.387208,-1.3516 -0.726534,-0.5174 -1.751943,-0.9472 -2.655851,-1.1146 -0.542207,-0.1004 -2.003502,-0.1028 -2.52543,-0.012 -1.891292,0.3297 -3.511137,1.1814 -4.956008,2.6203 -0.823568,0.8201 -1.366344,1.6036 -1.861467,2.6795 -0.206728,0.475 -0.2102,0.4811 -0.260843,1.2331 -0.07129,1.0589 -0.190773,1.6767 -0.509828,2.561 -0.0795,0.2204 -0.169424,0.6365 -0.272699,1.3042 -0.08963,0.6174 -0.234261,1.6214 -0.462403,3.1776 -0.116861,0.7971 -0.161476,1.2138 -0.130421,1.233 0.08031,0.05 0.454537,0.011 0.806241,-0.083 0.270794,-0.073 0.523984,-0.1847 0.77067,-0.3201 0.086,-0.047 0.166823,-0.1002 0.248987,-0.1541 0.03563,-0.023 0.07187,-0.047 0.106708,-0.071 0.0808,-0.057 0.160884,-0.1147 0.23713,-0.1778 0.529038,-0.4381 0.94299,-1.0159 1.161934,-1.6599 0.03058,-0.1024 0.06355,-0.2224 0.09485,-0.3676 0.01518,-0.073 0.03756,-0.1885 0.05928,-0.3082 0.03802,-0.2097 0.06725,-0.3849 0.118564,-0.6996 0.07151,-0.4384 0.147654,-0.9146 0.225273,-1.4465 0.190805,-1.3074 0.387497,-2.5399 0.43869,-2.7388 0.05119,-0.1989 0.206834,-0.5838 0.343838,-0.8655 0.69649,-1.4323 2.014577,-2.5402 3.485805,-2.9286 0.317465,-0.084 0.508591,-0.1052 1.161934,-0.1067 0.907091,0 1.242802,0.071 1.885181,0.4031 0.741786,0.384 1.469839,1.2622 1.742902,2.0986 0.296184,0.9073 0.291878,1.1775 -0.130422,4.0668 -0.365395,2.5 -0.400483,2.9715 -0.272698,3.4621 0.201427,0.7733 0.849379,1.4811 1.612481,1.7666 0.261377,0.098 0.861174,0.1889 0.936661,0.1423 0.02447,-0.015 0.287497,-1.7299 0.592825,-3.8178 0.540059,-3.693 0.638816,-4.2577 0.829954,-4.7426 0.542115,-1.3753 1.817394,-2.6263 3.189392,-3.1301 0.590388,-0.2168 0.816112,-0.2473 1.624337,-0.249 0.915253,0 1.153171,0.043 1.814041,0.3676 0.697639,0.3426 1.316559,1.0013 1.68362,1.7784 0.27276,0.5775 0.32167,0.8415 0.320126,1.6718 -0.0012,0.676 -0.02382,0.9149 -0.331982,2.9641 -0.381798,2.5388 -0.39623,2.8736 -0.177847,3.4621 0.289836,0.7812 0.979751,1.426 1.754759,1.6244 0.292651,0.075 0.701926,0.1043 0.746958,0.059 0.0148,-0.015 0.124256,-0.7199 0.248986,-1.5769 0.252142,-1.7324 0.261149,-1.7666 0.320124,-1.7666 0.02296,0 0.09836,0.1101 0.177848,0.249 0.372673,0.6514 1.167205,1.52 1.814041,1.98 0.706412,0.5024 1.609153,0.8695 2.537287,1.0434 0.461009,0.086 0.738197,0.099 3.035258,0.1186 1.387611,0.012 2.570355,0 2.632138,-0.012 0.108473,-0.027 0.107794,-0.039 0.106708,-0.4268 -7.59e-4,-0.2211 -0.02132,-0.4915 -0.04743,-0.6047 -0.142061,-0.6165 -0.656954,-1.286 -1.233073,-1.5888 -0.485835,-0.2553 -0.791405,-0.2955 -1.991889,-0.2964 -1.099905,-8e-4 -1.578706,-0.056 -2.12231,-0.2371 -0.853646,-0.2838 -1.710804,-1.0808 -2.122308,-1.98 -0.606419,-1.3252 -0.392349,-3.0396 0.557254,-4.4699 0.283826,-0.4275 1.03887,-1.1822 1.493916,-1.494 0.450663,-0.3087 1.014338,-0.5794 1.541342,-0.7351 0.392038,-0.1158 0.485467,-0.1197 1.814042,-0.1541 1.518399,-0.039 1.698431,-0.074 2.252731,-0.332 0.609642,-0.2838 1.281952,-0.8779 1.61248,-1.4346 0.180526,-0.3041 0.356821,-0.7674 0.379408,-0.9959 l 0.01183,-0.166 -2.395008,-0.012 c -2.490346,-0.014 -2.935383,0.015 -3.746648,0.1897 -2.128137,0.457 -4.255375,1.9419 -5.572545,3.9008 -0.321991,0.4789 -0.339319,0.4847 -0.509828,0 -0.487619,-1.3862 -1.695592,-2.7342 -3.058966,-3.4147 C 38.631165,1040.7001 37.582701,1040.4687 36.499242,1040.4633 Z"
         inkscape:connector-curvature="0"
         id="path3672"
         style="fill:#bdd1e3;fill-opacity:1" />
      <path
         d="m 2.6727383,1036.7285 c -0.205446,0 -0.241064,0.016 -0.260842,0.1067 -0.0124,0.057 -0.132387,0.9004 -0.2727,1.8733 -0.140316,0.9729 -0.270161,1.7759 -0.284556,1.7904 -0.01438,0.014 -1.02140199,0.044 -2.24087399,0.059 -2.16900301,0.027 -2.23093001,0.024 -2.77441601,0.1423 -1.757434,0.382 -3.275252,1.2369 -4.742591,2.6677 l -0.521686,0.498 -0.083,-0.1304 c -0.544316,-0.879 -0.953071,-1.3711 -1.5176293,-1.8378 -0.842653,-0.6965 -1.774207,-1.105 -2.940407,-1.2805 -0.366261,-0.055 -0.969223,-0.071 -2.952262,-0.071 -2.230294,-2e-4 -2.488571,0.01 -2.513574,0.071 -0.05217,0.136 -0.02956,0.8698 0.03555,1.1145 0.190732,0.7165 0.727665,1.2976 1.44649,1.5769 0.241603,0.094 0.364524,0.1113 1.565056,0.1423 1.433947,0.037 1.746829,0.083 2.312013,0.3201 0.927264,0.3887 1.713327,1.3261 1.980032,2.3713 0.176432,0.6915 0.107368,1.698 -0.165991,2.5018 -0.571144,1.6792 -2.119957,3.123 -3.841499,3.5806 -0.400885,0.1066 -0.55994,0.1218 -1.825898,0.1541 -1.460399,0.037 -1.622087,0.059 -2.157878,0.2965 -0.568846,0.2515 -1.208314,0.7864 -1.58877,1.3279 -0.244209,0.3476 -0.502581,0.8996 -0.521685,1.1382 l -0.01183,0.1541 2.264587,0.024 c 2.352276,0.014 2.957917,-0.015 3.758504,-0.1779 1.678309,-0.341 3.317427,-1.2647 4.754448,-2.6795 0.251642,-0.2478 0.4562673,-0.4506 0.4624033,-0.4506 0.0061,0 0.11515,0.162 0.23713,0.3676 0.736694,1.2413 1.85266,2.1505 3.201249,2.5965 0.915092,0.3026 1.065956,0.3119 3.936351,0.332 l 2.58471101,0.024 0.04743,-0.1185 c 0.06824,-0.1795 0.05485,-0.7537 -0.02372,-1.0553 -0.204993,-0.787 -0.774659,-1.4044 -1.52948501,-1.648 -0.271649,-0.088 -0.466702,-0.1 -1.671764,-0.1304 -1.532146,-0.039 -1.732943,-0.071 -2.395008,-0.415 -1.088422,-0.5663 -1.836093,-1.8305 -1.837755,-3.1064 -7.58e-4,-0.6675 0.230494,-1.6355 0.533542,-2.2409 0.542575,-1.0838 1.633489,-2.1494 2.750703,-2.6796 0.787361,-0.3736 1.487334,-0.486 3.023402,-0.4861 0.73509801,0 0.96687801,-0.024 1.24493001,-0.095 0.419545,-0.1075 0.767568,-0.2546 1.09079599,-0.4743 0.135456,-0.092 0.262584,-0.166 0.272699,-0.166 0.04825,0 -0.01305,0.441 -0.331981,2.6203 -0.44411599,3.0347 -0.44035199,3.036 -0.43868999,3.7941 0.0038,1.7289 0.60018399,3.1578 1.86146699,4.4224 0.71327,0.7152 1.415978,1.1695 2.335726,1.494 0.36378,0.1283 1.150197,0.2883 1.565055,0.3319 0.358165,0.038 1.329148,0.033 1.695477,-0.012 1.670853,-0.202 3.1150397,-0.8157 4.5173177,-1.9326 1.051084,-0.8372 1.880628,-1.828 2.489861,-2.976 0.110286,-0.2078 0.206678,-0.3743 0.213416,-0.3675 -0.232793,1.3195 -0.01131,0.3407 0.154135,-0.4506 0.319055,-0.8843 0.438533,-1.5021 0.509828,-2.561 l 0.02371,-0.7114 -0.083,-0.5572 c -0.176974,-1.1897 -0.632653,-2.1827 -1.434634,-3.1301 -0.71368,-0.8431 -1.639756,-1.487 -2.667707,-1.8496 -1.013564,-0.3576 -1.727221,-0.4129 -4.8018727,-0.415 l -2.063028,-0.012 0.03555,-0.2371 c 0.16489,-1.2894 -0.01768,-1.9588 -0.711389,-2.6559 -0.504083,-0.5065 -1.097864,-0.7825 -1.695475,-0.7825 L 2.6727403,1036.7285 z m 1.968175,6.6633 2.549143,0.024 c 2.8712667,0.019 2.8536847,0.017 3.6043687,0.3794 1.406148,0.6778 2.238173,2.2492 2.051171,3.8652 -0.141029,1.2187 -0.623791,2.2425 -1.434633,3.0827 -0.850229,0.881 -1.6938537,1.3768 -2.6914207,1.5887 -0.491833,0.1045 -1.446533,0.1182 -1.92075,0.024 -1.411718,-0.2812 -2.577962,-1.5121 -2.845555,-2.9878 -0.107608,-0.5934 -0.07009,-1.1148 0.2727,-3.4858 0.180639,-1.2495 0.355318,-2.3248 0.379406,-2.3832 L 4.6409133,1043.3918 Z"
         inkscape:connector-curvature="0"
         id="path3670"
         style="fill:#85c226;fill-opacity:1" />
      <path
         d="m 58.793785,1061.3769 c -18.496609,0.2639 -37.457065,0.2637 -55.9999997,0.2813 -14.5944333,0.01 -24.4443073,0.01 -28.0000003,0 l 0,0.625 c 10.79692,-0.035 34.3588323,0.058 42.3125,0.1875 13.44718,0.306 28.524531,0.4678 41.4375,2.3125 0.0073,0.01 -0.01545,0.018 -0.03125,0.031 0.07227,-0.033 0.191042,-0.046 0.25,-0.031 0.0064,0 0.02313,-2e-4 0.03125,0 L 58.793785,1061.3769 Z"
         inkscape:connector-curvature="0"
         id="path3666"
         style="fill:url(#linearGradient3716);fill-opacity:1" />
    </g>
  </g>
</svg>
